<svg width="345" height="111" viewBox="0 0 345 111" fill="none" xmlns="http://www.w3.org/2000/svg">
<path d="M0.454102 9.65234C0.454102 7.91667 0.762044 6.48893 1.37793 5.36914C2.0498 4.24935 2.94564 3.35352 4.06543 2.68164C5.18522 1.95378 6.41699 1.42188 7.76074 1.08594C9.16048 0.75 10.5882 0.526042 12.0439 0.414062C13.5557 0.246094 15.0114 0.190104 16.4111 0.246094C17.8109 0.246094 19.0986 0.246094 20.2744 0.246094C22.57 0.246094 24.8656 0.470052 27.1611 0.917969C29.4567 1.36589 31.4723 2.14974 33.208 3.26953C34.9997 4.38932 36.4554 5.90104 37.5752 7.80469C38.695 9.65234 39.2549 11.9759 39.2549 14.7754C39.2549 17.2389 38.751 19.7025 37.7432 22.166C36.7913 24.5736 35.5316 26.8971 33.9639 29.1367C32.4521 31.3203 30.7165 33.3359 28.7568 35.1836C26.7972 36.9753 24.8376 38.515 22.8779 39.8027C20.9743 41.0905 19.1266 42.0983 17.335 42.8262C15.5993 43.554 14.1436 43.834 12.9678 43.666C12.2959 45.8496 11.876 48.2012 11.708 50.7207C11.596 53.1842 11.568 55.6198 11.624 58.0273C11.68 60.3789 11.764 62.6465 11.876 64.8301C11.988 66.9577 11.876 68.8053 11.54 70.373C11.2601 71.8848 10.7002 73.0326 9.86035 73.8164C9.02051 74.5443 7.73275 74.7682 5.99707 74.4883C5.49316 70.513 5.10124 66.4818 4.82129 62.3945C4.59733 58.3073 4.40137 54.248 4.2334 50.2168C4.06543 46.1855 3.89746 42.2663 3.72949 38.459C3.61751 34.5957 3.42155 30.9284 3.1416 27.457C2.91764 23.9857 2.58171 20.7383 2.13379 17.7148C1.68587 14.6914 1.12598 12.0039 0.454102 9.65234ZM21.1982 7.46875C20.3584 7.46875 19.3226 7.49674 18.0908 7.55273C16.859 7.60872 15.6553 7.80469 14.4795 8.14062C13.3597 8.42057 12.4079 8.95247 11.624 9.73633C10.8402 10.4642 10.4482 11.528 10.4482 12.9277V34.9316C12.7438 34.9316 15.1794 34.3158 17.7549 33.084C20.3304 31.8522 22.682 30.2845 24.8096 28.3809C26.9372 26.4772 28.7008 24.3216 30.1006 21.9141C31.5003 19.5065 32.2002 17.127 32.2002 14.7754C32.2002 13.0397 31.8643 11.696 31.1924 10.7441C30.5765 9.79232 29.7367 9.06445 28.6729 8.56055C27.665 8.05664 26.5173 7.7487 25.2295 7.63672C23.9417 7.52474 22.598 7.46875 21.1982 7.46875ZM42.6982 58.9512C42.6982 55.4798 43.5101 52.2604 45.1338 49.293C46.7575 46.2695 48.8851 43.694 51.5166 41.5664C54.2041 39.3828 57.1995 37.6751 60.5029 36.4434C63.8623 35.2116 67.2497 34.5957 70.665 34.5957C72.5687 34.5957 74.2484 35.2116 75.7041 36.4434C77.2158 37.6751 78.4756 39.1868 79.4834 40.9785C80.4912 42.7142 81.2471 44.5618 81.751 46.5215C82.3109 48.4811 82.5908 50.1888 82.5908 51.6445C82.5908 54.7799 81.835 57.8314 80.3232 60.7988C78.8115 63.7103 76.8519 66.3138 74.4443 68.6094C72.0368 70.849 69.3213 72.6686 66.2979 74.0684C63.2744 75.4681 60.251 76.168 57.2275 76.168C54.54 76.168 52.2725 75.7201 50.4248 74.8242C48.5771 73.8724 47.0934 72.6406 45.9736 71.1289C44.8538 69.5612 44.014 67.7415 43.4541 65.6699C42.9502 63.5423 42.6982 61.3027 42.6982 58.9512ZM49.8369 59.791C49.8369 61.2467 49.9489 62.5345 50.1729 63.6543C50.4528 64.7181 50.9007 65.6419 51.5166 66.4258C52.1885 67.2096 53.0563 67.8255 54.1201 68.2734C55.1839 68.6654 56.4997 68.8613 58.0674 68.8613C60.139 68.8613 62.2106 68.3014 64.2822 67.1816C66.3538 66.0059 68.2015 64.5501 69.8252 62.8145C71.5049 61.0228 72.8486 59.0632 73.8564 56.9355C74.8643 54.8079 75.3682 52.7363 75.3682 50.7207C75.3682 49.8249 75.2842 48.8451 75.1162 47.7812C74.9482 46.7174 74.6683 45.7376 74.2764 44.8418C73.8844 43.946 73.3245 43.1901 72.5967 42.5742C71.8688 41.9583 70.945 41.6504 69.8252 41.6504C68.8174 41.6504 67.6136 41.9863 66.2139 42.6582C64.8701 43.3301 63.4424 44.1979 61.9307 45.2617C60.4749 46.3255 59.0192 47.5293 57.5635 48.873C56.1637 50.2168 54.876 51.5605 53.7002 52.9043C52.5244 54.248 51.5726 55.5358 50.8447 56.7676C50.1729 57.9993 49.8369 59.0072 49.8369 59.791ZM87.8818 28.4648C87.8818 26.8411 87.7699 25.2734 87.5459 23.7617C87.3219 22.194 87.266 20.8223 87.3779 19.6465C87.4899 18.4147 87.9098 17.4349 88.6377 16.707C89.4215 15.9792 90.8213 15.6152 92.8369 15.6152C93.4528 16.903 94.0407 18.8626 94.6006 21.4941C95.2165 24.1257 95.8044 27.1491 96.3643 30.5645C96.9242 33.9798 97.4561 37.7031 97.96 41.7344C98.4639 45.7096 98.9118 49.7129 99.3037 53.7441C99.7516 57.7754 100.116 61.7507 100.396 65.6699C100.731 69.5332 100.983 73.0605 101.151 76.252C99.3037 77.4837 97.82 77.5677 96.7002 76.5039C95.5804 75.4401 94.6566 73.6484 93.9287 71.1289C93.2008 68.5534 92.641 65.446 92.249 61.8066C91.8571 58.1113 91.4652 54.304 91.0732 50.3848C90.7373 46.4095 90.3174 42.5182 89.8135 38.7109C89.3096 34.8477 88.6657 31.4323 87.8818 28.4648ZM104.091 32.5801C104.091 32.0762 104.091 31.5723 104.091 31.0684C104.147 30.5085 104.259 30.0046 104.427 29.5566C104.651 29.0527 104.931 28.6888 105.267 28.4648C105.659 28.1849 106.218 28.0449 106.946 28.0449C107.002 28.0449 107.058 28.0449 107.114 28.0449C107.226 28.0449 107.338 28.0449 107.45 28.0449C107.618 28.1009 107.758 28.1289 107.87 28.1289C108.934 29.5846 109.858 31.4603 110.642 33.7559C111.425 35.9954 112.181 38.403 112.909 40.9785C113.637 43.498 114.421 46.0736 115.261 48.7051C116.101 51.2806 117.192 53.6042 118.536 55.6758C119.88 57.7474 121.532 59.3991 123.491 60.6309C125.451 61.8626 127.886 62.3945 130.798 62.2266C132.086 62.2266 132.925 61.5267 133.317 60.127C133.709 58.7272 133.905 56.9355 133.905 54.752C133.961 52.5684 133.905 50.1608 133.737 47.5293C133.625 44.8978 133.625 42.4062 133.737 40.0547C133.905 37.6471 134.325 35.5475 134.997 33.7559C135.725 31.9642 136.957 30.7604 138.692 30.1445C139.42 31.6003 140.008 33.8958 140.456 37.0312C140.96 40.1107 141.324 43.694 141.548 47.7812C141.772 51.8125 141.884 56.2077 141.884 60.9668C141.884 65.6699 141.772 70.373 141.548 75.0762C141.324 79.7233 140.988 84.2025 140.54 88.5137C140.092 92.8249 139.588 96.6042 139.028 99.8516C138.468 103.099 137.797 105.646 137.013 107.494C136.285 109.398 135.501 110.21 134.661 109.93C133.485 108.81 132.562 107.354 131.89 105.562C131.274 103.771 130.826 101.783 130.546 99.5996C130.322 97.416 130.238 95.0924 130.294 92.6289C130.35 90.2214 130.434 87.7858 130.546 85.3223C130.714 82.8587 130.882 80.4512 131.05 78.0996C131.274 75.748 131.386 73.5924 131.386 71.6328C129.37 71.8008 127.299 71.4928 125.171 70.709C123.099 69.9251 121.056 68.7214 119.04 67.0977C117.024 65.418 115.093 63.4023 113.245 61.0508C111.453 58.6992 109.858 56.0397 108.458 53.0723C107.114 50.1048 106.05 46.9134 105.267 43.498C104.483 40.0267 104.091 36.3874 104.091 32.5801ZM146.923 47.1934C146.923 45.2897 147.175 43.2181 147.679 40.9785C148.239 38.7389 148.994 36.4993 149.946 34.2598C150.898 31.9642 152.046 29.7526 153.39 27.625C154.733 25.4414 156.245 23.5378 157.925 21.9141C159.604 20.2344 161.424 18.9186 163.384 17.9668C165.343 16.959 167.415 16.4551 169.599 16.4551C171.39 16.4551 173.07 16.707 174.638 17.2109C176.205 17.6589 177.549 18.3587 178.669 19.3105C179.789 20.2624 180.657 21.4661 181.272 22.9219C181.944 24.3216 182.28 26.0013 182.28 27.9609C181.049 27.9609 180.041 27.653 179.257 27.0371C178.529 26.3652 177.829 25.6374 177.157 24.8535C176.541 24.0697 175.841 23.3698 175.058 22.7539C174.33 22.138 173.378 21.8301 172.202 21.8301C170.466 21.8301 168.787 22.278 167.163 23.1738C165.595 24.0697 164.112 25.2734 162.712 26.7852C161.368 28.2969 160.164 30.0046 159.101 31.9082C158.093 33.8118 157.197 35.7435 156.413 37.7031C155.685 39.6068 155.097 41.4824 154.649 43.3301C154.257 45.1777 154.062 46.7734 154.062 48.1172C154.062 51.0286 154.481 53.7721 155.321 56.3477C156.217 58.8672 157.477 61.0788 159.101 62.9824C160.724 64.8301 162.74 66.2858 165.147 67.3496C167.555 68.4134 170.299 68.9453 173.378 68.9453C175.338 68.9453 177.185 68.6654 178.921 68.1055C180.713 67.4896 182.42 66.8457 184.044 66.1738C185.724 65.446 187.375 64.7741 188.999 64.1582C190.623 63.5423 192.246 63.2344 193.87 63.2344C194.094 63.2344 194.402 63.2624 194.794 63.3184C195.242 63.3184 195.634 63.3743 195.97 63.4863C196.362 63.5983 196.698 63.7943 196.978 64.0742C197.257 64.2982 197.397 64.6621 197.397 65.166C197.397 67.1816 196.614 68.8893 195.046 70.2891C193.534 71.6888 191.715 72.8366 189.587 73.7324C187.459 74.5723 185.248 75.1882 182.952 75.5801C180.657 75.972 178.781 76.168 177.325 76.168C173.07 76.168 169.095 75.4961 165.399 74.1523C161.704 72.7526 158.485 70.793 155.741 68.2734C152.998 65.7539 150.842 62.7305 149.274 59.2031C147.707 55.6198 146.923 51.6165 146.923 47.1934ZM203.36 21.4102C203.36 20.7943 203.416 20.0384 203.528 19.1426C203.696 18.1908 203.948 17.2949 204.284 16.4551C204.676 15.6152 205.152 14.9154 205.712 14.3555C206.272 13.7396 207 13.4316 207.896 13.4316C207.951 13.4316 208.091 13.4596 208.315 13.5156C208.539 13.5716 208.679 13.5996 208.735 13.5996C209.687 17.071 210.247 20.5143 210.415 23.9297C210.583 27.3451 210.527 30.6764 210.247 33.9238C209.967 37.1152 209.547 40.2227 208.987 43.2461C208.427 46.2135 207.951 48.957 207.56 51.4766C207.224 53.9961 207 56.2637 206.888 58.2793C206.832 60.2949 207.14 62.0026 207.812 63.4023C207.7 62.5065 207.616 61.4427 207.56 60.2109C207.56 58.9232 207.672 57.6074 207.896 56.2637C208.175 54.9199 208.595 53.5762 209.155 52.2324C209.771 50.8887 210.639 49.6849 211.759 48.6211C212.879 47.5573 214.306 46.7174 216.042 46.1016C217.834 45.4857 220.045 45.1777 222.677 45.1777C225.42 45.1777 227.772 45.6536 229.731 46.6055C231.747 47.5573 233.399 48.873 234.687 50.5527C235.974 52.1764 236.926 54.1081 237.542 56.3477C238.214 58.5312 238.55 60.8828 238.55 63.4023C238.55 64.5781 238.522 65.9219 238.466 67.4336C238.466 68.8893 238.27 70.2611 237.878 71.5488C237.542 72.7806 236.898 73.8444 235.946 74.7402C235.05 75.5801 233.707 76 231.915 76C231.915 75.1042 231.971 73.9004 232.083 72.3887C232.195 70.821 232.251 69.1693 232.251 67.4336C232.307 65.6979 232.251 63.9342 232.083 62.1426C231.971 60.3509 231.607 58.7552 230.991 57.3555C230.375 55.8997 229.507 54.724 228.388 53.8281C227.324 52.8763 225.84 52.4004 223.937 52.4004C223.265 52.4004 222.425 52.4564 221.417 52.5684C220.465 52.6243 219.485 52.8763 218.478 53.3242C217.47 53.7721 216.49 54.472 215.538 55.4238C214.586 56.3197 213.83 57.5794 213.271 59.2031C212.711 60.7708 212.375 62.7865 212.263 65.25C212.207 67.6576 212.515 70.625 213.187 74.1523C212.795 75.1602 212.291 75.748 211.675 75.916C211.115 76.084 210.387 76.168 209.491 76.168C207.7 76.168 206.216 75.5521 205.04 74.3203C203.92 73.0326 203.052 71.3249 202.437 69.1973C201.821 67.0697 201.401 64.6061 201.177 61.8066C201.009 59.0072 200.953 56.0957 201.009 53.0723C201.065 49.9928 201.205 46.8854 201.429 43.75C201.709 40.5586 201.961 37.5632 202.185 34.7637C202.465 31.9082 202.716 29.3327 202.94 27.0371C203.22 24.6855 203.36 22.8099 203.36 21.4102ZM278.022 65.166C275.895 66.6217 274.047 67.9375 272.479 69.1133C270.968 70.2331 269.484 71.1849 268.028 71.9688C266.573 72.7526 265.005 73.3405 263.325 73.7324C261.701 74.1243 259.686 74.3203 257.278 74.3203C252.071 74.3203 248.208 72.9486 245.688 70.2051C243.169 67.4056 241.909 63.2624 241.909 57.7754C241.909 55.6478 242.189 53.4362 242.749 51.1406C243.309 48.8451 244.121 46.5775 245.185 44.3379C246.304 42.0423 247.62 39.8867 249.132 37.8711C250.644 35.7995 252.351 33.9798 254.255 32.4121C256.159 30.8444 258.174 29.6126 260.302 28.7168C262.485 27.765 264.781 27.2891 267.188 27.2891C271.22 27.681 274.383 28.6888 276.679 30.3125C278.974 31.8802 280.71 33.9238 281.886 36.4434C283.062 38.9069 283.873 41.6784 284.321 44.7578C284.769 47.7812 285.105 50.9167 285.329 54.1641C285.609 57.4115 285.945 60.6589 286.337 63.9062C286.729 67.1536 287.541 70.1491 288.772 72.8926C288.045 74.7402 287.345 76.028 286.673 76.7559C286.057 77.5397 285.357 77.6797 284.573 77.1758C283.789 76.6719 282.866 75.4401 281.802 73.4805C280.794 71.5208 279.534 68.7493 278.022 65.166ZM249.048 57.9434C249.048 61.1348 249.636 63.4863 250.812 64.998C252.043 66.4538 254.199 67.1816 257.278 67.1816C259.574 67.1816 261.757 66.7897 263.829 66.0059C265.957 65.166 267.804 64.0462 269.372 62.6465C270.94 61.1908 272.2 59.4551 273.151 57.4395C274.103 55.4238 274.579 53.1842 274.579 50.7207C274.579 49.7129 274.607 48.3132 274.663 46.5215C274.719 44.6738 274.607 42.8542 274.327 41.0625C274.047 39.2708 273.515 37.7311 272.731 36.4434C271.948 35.0996 270.772 34.4277 269.204 34.4277C266.293 34.4277 263.605 35.1836 261.142 36.6953C258.678 38.151 256.55 40.0267 254.759 42.3223C252.967 44.6178 251.567 47.1654 250.56 49.9648C249.552 52.7083 249.048 55.3678 249.048 57.9434ZM292.216 33.6719C292.216 33.5039 292.244 33.3639 292.3 33.252C292.3 33.14 292.328 33 292.384 32.832C292.608 32.5521 292.944 32.1882 293.392 31.7402C293.84 31.2923 294.119 31.0684 294.231 31.0684H311.112C311.112 30.4525 311.028 29.4727 310.86 28.1289C310.692 26.7852 310.524 25.3014 310.356 23.6777C310.244 22.054 310.216 20.3743 310.272 18.6387C310.328 16.847 310.552 15.2513 310.944 13.8516C311.392 12.3958 312.064 11.2201 312.96 10.3242C313.912 9.3724 315.228 8.89648 316.907 8.89648C316.907 14.5514 317.299 19.0866 318.083 22.502C318.867 25.9173 319.903 28.5488 321.19 30.3965C322.534 32.2441 324.046 33.4479 325.726 34.0078C327.405 34.5677 329.113 34.8197 330.849 34.7637C332.64 34.6517 334.376 34.3717 336.056 33.9238C337.735 33.4759 339.219 33.168 340.507 33C341.851 32.832 342.914 32.972 343.698 33.4199C344.482 33.8118 344.874 34.7917 344.874 36.3594C344.874 37.5352 344.594 38.375 344.034 38.8789C343.53 39.3828 342.522 39.7747 341.011 40.0547C340.563 40.1107 339.807 40.2227 338.743 40.3906C337.735 40.5026 336.588 40.6146 335.3 40.7266C334.012 40.8385 332.64 40.9785 331.185 41.1465C329.729 41.2585 328.357 41.3704 327.069 41.4824C325.782 41.5944 324.606 41.6784 323.542 41.7344C322.478 41.7344 321.694 41.7344 321.19 41.7344C321.19 42.0143 321.162 42.4902 321.106 43.1621C321.05 43.834 321.022 44.2819 321.022 44.5059C321.022 46.9694 321.414 49.377 322.198 51.7285C322.982 54.0241 323.822 56.3197 324.718 58.6152C325.67 60.9108 326.537 63.2064 327.321 65.502C328.105 67.7975 328.497 70.1771 328.497 72.6406C328.497 73.0885 328.441 73.5645 328.329 74.0684C328.273 74.5163 328.105 74.9362 327.825 75.3281C327.601 75.6641 327.237 75.916 326.733 76.084C326.285 76.3079 325.642 76.2799 324.802 76C322.674 75.4401 321.078 74.2363 320.015 72.3887C319.007 70.541 318.251 68.3574 317.747 65.8379C317.243 63.2624 316.907 60.5469 316.739 57.6914C316.571 54.8359 316.291 52.1764 315.899 49.7129C315.563 47.1934 315.004 45.0658 314.22 43.3301C313.436 41.5384 312.176 40.4466 310.44 40.0547L294.231 36.3594C294.007 36.3594 293.672 36.1354 293.224 35.6875C292.776 35.1836 292.496 34.8197 292.384 34.5957C292.328 34.4837 292.3 34.3438 292.3 34.1758C292.244 34.0638 292.216 33.8958 292.216 33.6719Z" fill="white"/>
</svg>
